<svg xmlns="http://www.w3.org/2000/svg" xmlns:xlink="http://www.w3.org/1999/xlink" width="500" zoomAndPan="magnify" viewBox="0 0 112.5 112.5" height="500" preserveAspectRatio="xMidYMid meet" version="1.2"><defs><clipPath id="e4d91309d1"><path d="M 0 0 L 112.003906 0 L 112.003906 112.003906 L 0 112.003906 Z M 0 0 "/></clipPath><clipPath id="9d46a72be8"><path d="M 97 90 L 112.003906 90 L 112.003906 112.003906 L 97 112.003906 Z M 97 90 "/></clipPath></defs><g id="b7e04242e9"><g clip-rule="nonzero" clip-path="url(#e4d91309d1)"><path style=" stroke:none;fill-rule:nonzero;fill:#ffffff;fill-opacity:1;" d="M 286.351562 373.339844 L 86.988281 373.339844 C 39.023438 373.339844 0 334.316406 0 286.351562 L 0 86.988281 C 0 39.023438 39.023438 0 86.988281 0 L 286.351562 0 C 334.316406 0 373.339844 39.023438 373.339844 86.988281 L 373.339844 286.351562 C 373.339844 334.316406 334.316406 373.339844 286.351562 373.339844 Z M 86.988281 14.386719 C 46.957031 14.386719 14.386719 46.957031 14.386719 86.988281 L 14.386719 286.351562 C 14.386719 326.382812 46.957031 358.953125 86.988281 358.953125 L 286.351562 358.953125 C 326.382812 358.953125 358.953125 326.386719 358.953125 286.351562 L 358.953125 86.988281 C 358.953125 46.957031 326.386719 14.386719 286.351562 14.386719 Z M 86.988281 14.386719 "/></g><g clip-rule="nonzero" clip-path="url(#9d46a72be8)"><path style=" stroke:none;fill-rule:nonzero;fill:#ffffff;fill-opacity:1;" d="M 186.671875 268.234375 C 137.730469 268.234375 97.914062 228.417969 97.914062 179.476562 C 97.914062 130.535156 137.730469 90.71875 186.671875 90.71875 C 235.609375 90.71875 275.425781 130.535156 275.425781 179.476562 C 275.425781 228.417969 235.609375 268.234375 186.671875 268.234375 Z M 186.671875 105.105469 C 145.664062 105.105469 112.300781 138.46875 112.300781 179.476562 C 112.300781 220.484375 145.664062 253.847656 186.671875 253.847656 C 227.679688 253.847656 261.039062 220.484375 261.039062 179.476562 C 261.039062 138.46875 227.679688 105.105469 186.671875 105.105469 Z M 186.671875 105.105469 "/></g></g></svg>