<svg xmlns="http://www.w3.org/2000/svg" xmlns:xlink="http://www.w3.org/1999/xlink" width="500" zoomAndPan="magnify" viewBox="0 0 375 374.999991" height="500" preserveAspectRatio="xMidYMid meet" version="1.2"><g id="9cf42a3d84"><path style=" stroke:none;fill-rule:nonzero;fill:#000000;fill-opacity:1;" d="M 287.625 375 L 87.375 375 C 39.195312 375 0 335.804688 0 287.625 L 0 87.375 C 0 39.195312 39.195312 0 87.375 0 L 287.625 0 C 335.804688 0 375 39.195312 375 87.375 L 375 287.625 C 375 335.804688 335.804688 375 287.625 375 Z M 87.375 14.449219 C 47.164062 14.449219 14.449219 47.164062 14.449219 87.375 L 14.449219 287.625 C 14.449219 327.835938 47.164062 360.550781 87.375 360.550781 L 287.625 360.550781 C 327.835938 360.550781 360.550781 327.835938 360.550781 287.625 L 360.550781 87.375 C 360.550781 47.164062 327.835938 14.449219 287.625 14.449219 Z M 87.375 14.449219 "/><path style=" stroke:none;fill-rule:nonzero;fill:#000000;fill-opacity:1;" d="M 187.5 269.425781 C 138.339844 269.425781 98.347656 229.433594 98.347656 180.273438 C 98.347656 131.117188 138.34375 91.125 187.5 91.125 C 236.65625 91.125 276.652344 131.117188 276.652344 180.273438 C 276.652344 229.433594 236.65625 269.425781 187.5 269.425781 Z M 187.5 105.574219 C 146.308594 105.574219 112.800781 139.085938 112.800781 180.273438 C 112.800781 221.464844 146.308594 254.976562 187.5 254.976562 C 228.691406 254.976562 262.199219 221.464844 262.199219 180.273438 C 262.199219 139.085938 228.691406 105.574219 187.5 105.574219 Z M 187.5 105.574219 "/><path style=" stroke:none;fill-rule:nonzero;fill:#000000;fill-opacity:1;" d="M 147.65625 180.273438 L 133.207031 180.273438 C 133.207031 150.335938 157.5625 125.980469 187.5 125.980469 L 187.5 140.429688 C 165.53125 140.429688 147.65625 158.304688 147.65625 180.273438 Z M 147.65625 180.273438 "/><path style=" stroke:none;fill-rule:nonzero;fill:#000000;fill-opacity:1;" d="M 306.339844 93.152344 C 292.5 93.152344 281.242188 81.894531 281.242188 68.054688 C 281.242188 54.21875 292.5 42.960938 306.339844 42.960938 C 320.175781 42.960938 331.433594 54.21875 331.433594 68.054688 C 331.433594 81.894531 320.175781 93.152344 306.339844 93.152344 Z M 306.339844 57.410156 C 300.46875 57.410156 295.695312 62.1875 295.695312 68.054688 C 295.695312 73.925781 300.46875 78.699219 306.339844 78.699219 C 312.207031 78.699219 316.980469 73.925781 316.980469 68.054688 C 316.980469 62.1875 312.207031 57.410156 306.339844 57.410156 Z M 306.339844 57.410156 "/></g></svg>