<svg xmlns="http://www.w3.org/2000/svg" xmlns:xlink="http://www.w3.org/1999/xlink" width="500" zoomAndPan="magnify" viewBox="0 0 112.5 112.5" height="500" preserveAspectRatio="xMidYMid meet" version="1.2"><defs><clipPath id="e8985e0bdb"><path d="M 40 15 L 112.003906 15 L 112.003906 112.003906 L 40 112.003906 Z M 40 15 "/></clipPath><clipPath id="91ffe57310"><path d="M 26 0 L 112.003906 0 L 112.003906 112.003906 L 26 112.003906 Z M 26 0 "/></clipPath><clipPath id="21f5799e48"><path d="M 42 15 L 112.003906 15 L 112.003906 112.003906 L 42 112.003906 Z M 42 15 "/></clipPath><clipPath id="cebbfce889"><path d="M 192.246094 0.21875 L 253.605469 0 C 252.492188 42.394531 335.636719 122.078125 342.308594 131.175781 C 308.074219 135.394531 276.058594 138.058594 253.605469 119.414062 L 253.378906 247.265625 C 252.9375 281.890625 238.046875 307.640625 220.03125 324.726562 C 218.480469 326.285156 216.925781 327.839844 215.144531 329.167969 C 192.019531 348.699219 169.347656 357.800781 138.222656 357.578125 C 107.539062 357.136719 84.417969 345.59375 64.855469 328.726562 C 50.183594 316.074219 38.402344 299.648438 31.730469 277.007812 C 17.28125 227.289062 35.957031 178.902344 77.308594 150.714844 C 77.976562 150.046875 78.859375 149.378906 79.753906 148.9375 C 98.648438 135.839844 127.996094 128.070312 155.339844 132.511719 L 155.339844 195.105469 C 136.441406 190.222656 119.546875 194.441406 107.097656 204.867188 C 106.875 204.867188 106.875 205.09375 106.652344 205.316406 C 94.648438 215.527344 87.753906 230.621094 88.644531 247.707031 C 90.867188 278.339844 116.214844 297.429688 143.78125 296.097656 C 143.78125 296.097656 144 296.097656 144 296.097656 C 170.679688 293.429688 192.691406 271.683594 192.019531 242.378906 Z M 192.246094 0.21875 "/></clipPath></defs><g id="6660223c58"><g clip-rule="nonzero" clip-path="url(#e8985e0bdb)"><path style=" stroke:none;fill-rule:evenodd;fill:#ffffff;fill-opacity:1;" d="M 206.011719 15.761719 L 267.375 15.539062 C 266.265625 57.933594 349.40625 137.617188 356.078125 146.71875 C 321.84375 150.933594 289.828125 153.597656 267.375 134.953125 L 267.148438 262.804688 C 266.707031 297.429688 251.816406 323.179688 233.800781 340.265625 C 232.25 341.824219 230.695312 343.375 228.914062 344.707031 C 205.792969 364.242188 183.117188 373.339844 151.992188 373.121094 C 121.3125 372.675781 98.1875 361.132812 78.625 344.265625 C 63.957031 331.613281 52.171875 315.1875 45.5 292.542969 C 31.050781 242.828125 49.726562 194.441406 91.078125 166.253906 C 91.746094 165.585938 92.628906 164.917969 93.523438 164.476562 C 112.417969 151.378906 141.765625 143.609375 169.109375 148.050781 L 169.109375 210.644531 C 150.214844 205.761719 133.316406 209.976562 120.867188 220.40625 C 120.648438 220.40625 120.648438 220.632812 120.421875 220.851562 C 108.417969 231.0625 101.523438 246.160156 102.414062 263.246094 C 104.636719 293.882812 129.980469 312.96875 157.550781 311.636719 C 157.550781 311.636719 157.773438 311.636719 157.773438 311.636719 C 184.449219 308.972656 206.460938 287.222656 205.792969 257.921875 Z M 206.011719 15.761719 "/></g><g clip-rule="nonzero" clip-path="url(#91ffe57310)"><path style=" stroke:none;fill-rule:evenodd;fill:#ffffff;fill-opacity:1;" d="M 192.242188 0.222656 L 253.605469 0 C 252.496094 42.394531 335.636719 122.078125 342.308594 131.179688 C 308.074219 135.398438 276.058594 138.058594 253.605469 119.414062 L 253.378906 247.269531 C 252.9375 281.890625 238.042969 307.640625 220.03125 324.730469 C 218.476562 326.285156 216.925781 327.839844 215.144531 329.167969 C 192.023438 348.703125 169.347656 357.804688 138.222656 357.582031 C 107.542969 357.140625 84.417969 345.59375 64.855469 328.726562 C 50.1875 316.078125 38.402344 299.648438 31.730469 277.007812 C 17.28125 227.292969 35.957031 178.902344 77.308594 150.714844 C 77.976562 150.046875 78.859375 149.378906 79.753906 148.9375 C 98.648438 135.839844 127.996094 128.070312 155.339844 132.511719 L 155.339844 195.105469 C 136.441406 190.222656 119.546875 194.4375 107.097656 204.867188 C 106.878906 204.867188 106.878906 205.09375 106.648438 205.316406 C 94.648438 215.523438 87.753906 230.621094 88.644531 247.710938 C 90.867188 278.34375 116.210938 297.429688 143.78125 296.101562 C 143.78125 296.101562 144 296.101562 144 296.101562 C 170.679688 293.433594 192.691406 271.683594 192.023438 242.382812 Z M 192.242188 0.222656 "/></g><g clip-rule="nonzero" clip-path="url(#21f5799e48)"><g clip-rule="evenodd" clip-path="url(#cebbfce889)"><path style=" stroke:none;fill-rule:evenodd;fill:#000000;fill-opacity:1;" d="M 208.324219 15.765625 L 269.691406 15.546875 C 268.578125 57.941406 351.71875 137.625 358.390625 146.726562 C 324.15625 150.941406 292.140625 153.605469 269.691406 134.957031 L 269.460938 262.8125 C 269.019531 297.4375 254.128906 323.183594 236.113281 340.273438 C 234.5625 341.828125 233.007812 343.382812 231.226562 344.714844 C 208.105469 364.25 185.429688 373.347656 154.304688 373.125 C 123.625 372.683594 100.5 361.140625 80.941406 344.269531 C 66.269531 331.621094 54.484375 315.195312 47.816406 292.550781 C 33.363281 242.835938 52.039062 194.445312 93.390625 166.261719 C 94.058594 165.589844 94.945312 164.921875 95.835938 164.480469 C 114.730469 151.386719 144.082031 143.617188 171.421875 148.058594 L 171.421875 210.652344 C 152.527344 205.765625 135.628906 209.984375 123.179688 220.414062 C 122.960938 220.414062 122.960938 220.640625 122.734375 220.859375 C 110.734375 231.070312 103.835938 246.167969 104.726562 263.253906 C 106.949219 293.886719 132.296875 312.976562 159.863281 311.644531 C 159.863281 311.644531 160.085938 311.644531 160.085938 311.644531 C 186.761719 308.980469 208.773438 287.230469 208.105469 257.929688 Z M 208.324219 15.765625 "/></g></g></g></svg>