<svg xmlns="http://www.w3.org/2000/svg" xmlns:xlink="http://www.w3.org/1999/xlink" width="500" zoomAndPan="magnify" viewBox="0 0 375 149.999998" height="200" preserveAspectRatio="xMidYMid meet" version="1.2"><defs/><g id="1835ee2e31"><g style="fill:#ffffff;fill-opacity:1;"><g transform="translate(0.000003125, 126.668281)"><path style="stroke:none" d="M 3.09375 -102.90625 L 40.140625 -102.90625 L 40.140625 -4.015625 C 46.859375 -4.972656 52.941406 -7.40625 58.390625 -11.3125 C 63.847656 -15.226562 68.394531 -20.5625 72.03125 -27.3125 C 75.664062 -34.070312 78.101562 -42.117188 79.34375 -51.453125 L 80.375 -51.453125 L 80.375 0 L 3.09375 0 Z M 3.09375 -102.90625 "/></g><g transform="translate(83.452621, 126.668281)"><path style="stroke:none" d="M 1.546875 -51.453125 C 1.546875 -59.484375 2.742188 -66.769531 5.140625 -73.3125 C 7.546875 -79.863281 10.910156 -85.503906 15.234375 -90.234375 C 19.554688 -94.972656 24.679688 -98.613281 30.609375 -101.15625 C 36.546875 -103.695312 43.015625 -104.96875 50.015625 -104.96875 C 57.015625 -104.96875 63.476562 -103.679688 69.40625 -101.109375 C 75.34375 -98.535156 80.472656 -94.894531 84.796875 -90.1875 C 89.117188 -85.488281 92.476562 -79.863281 94.875 -73.3125 C 97.28125 -66.769531 98.484375 -59.484375 98.484375 -51.453125 C 98.484375 -43.421875 97.28125 -36.128906 94.875 -29.578125 C 92.476562 -23.035156 89.117188 -17.410156 84.796875 -12.703125 C 80.472656 -8.003906 75.34375 -4.367188 69.40625 -1.796875 C 63.476562 0.773438 57.015625 2.0625 50.015625 2.0625 C 43.015625 2.0625 36.546875 0.789062 30.609375 -1.75 C 24.679688 -4.289062 19.554688 -7.925781 15.234375 -12.65625 C 10.910156 -17.394531 7.546875 -23.035156 5.140625 -29.578125 C 2.742188 -36.128906 1.546875 -43.421875 1.546875 -51.453125 Z M 38.390625 -99.40625 C 35.910156 -98.789062 34.191406 -96.234375 33.234375 -91.734375 C 32.273438 -87.242188 32.117188 -81.273438 32.765625 -73.828125 C 33.421875 -66.390625 34.882812 -57.832031 37.15625 -48.15625 C 39.414062 -38.550781 42.003906 -30.265625 44.921875 -23.296875 C 47.835938 -16.335938 50.785156 -11.09375 53.765625 -7.5625 C 56.753906 -4.03125 59.445312 -2.570312 61.84375 -3.1875 C 64.3125 -3.875 65.921875 -6.460938 66.671875 -10.953125 C 67.429688 -15.453125 67.398438 -21.441406 66.578125 -28.921875 C 65.753906 -36.398438 64.210938 -44.90625 61.953125 -54.4375 C 59.753906 -64.113281 57.28125 -72.414062 54.53125 -79.34375 C 51.789062 -86.269531 49.03125 -91.5 46.25 -95.03125 C 43.476562 -98.5625 40.859375 -100.019531 38.390625 -99.40625 Z M 38.390625 -99.40625 "/></g></g><g style="fill:#ffffff;fill-opacity:1;"><g transform="translate(183.472267, 126.668281)"><path style="stroke:none" d="M 1.546875 -51.453125 C 1.546875 -59.140625 2.691406 -66.238281 4.984375 -72.75 C 7.285156 -79.269531 10.578125 -84.929688 14.859375 -89.734375 C 19.148438 -94.535156 24.265625 -98.273438 30.203125 -100.953125 C 36.140625 -103.628906 42.742188 -104.96875 50.015625 -104.96875 C 56.597656 -104.96875 62.289062 -104.414062 67.09375 -103.3125 C 71.894531 -102.21875 75.851562 -100.929688 78.96875 -99.453125 C 82.09375 -97.984375 84.410156 -96.695312 85.921875 -95.59375 C 87.429688 -94.5 88.1875 -93.953125 88.1875 -93.953125 L 80.578125 -72.03125 C 78.722656 -74.976562 76.441406 -78.097656 73.734375 -81.390625 C 71.023438 -84.691406 67.972656 -87.796875 64.578125 -90.703125 C 61.179688 -93.617188 57.578125 -96.003906 53.765625 -97.859375 C 49.960938 -99.710938 46.070312 -100.640625 42.09375 -100.640625 C 37.976562 -100.640625 34.507812 -99.695312 31.6875 -97.8125 C 28.875 -95.925781 26.765625 -93.472656 25.359375 -90.453125 C 23.953125 -87.429688 23.25 -84.140625 23.25 -80.578125 C 23.25 -73.304688 24.226562 -66.546875 26.1875 -60.296875 C 28.144531 -54.054688 30.785156 -48.484375 34.109375 -43.578125 C 37.441406 -38.671875 41.179688 -34.46875 45.328125 -30.96875 C 49.484375 -27.46875 53.753906 -24.804688 58.140625 -22.984375 C 62.535156 -21.171875 66.722656 -20.265625 70.703125 -20.265625 C 73.035156 -20.265625 75.316406 -20.59375 77.546875 -21.25 C 79.773438 -21.90625 81.625 -22.914062 83.09375 -24.28125 C 84.570312 -25.65625 85.3125 -27.472656 85.3125 -29.734375 C 85.3125 -33.097656 84.265625 -36.269531 82.171875 -39.25 C 80.078125 -42.238281 77.3125 -45.035156 73.875 -47.640625 C 70.445312 -50.253906 66.742188 -52.65625 62.765625 -54.84375 C 58.785156 -57.039062 54.84375 -58.992188 50.9375 -60.703125 C 47.03125 -62.421875 43.550781 -63.878906 40.5 -65.078125 C 37.445312 -66.285156 35.195312 -67.195312 33.75 -67.8125 L 33.75 -68.84375 L 88.390625 -68.84375 L 88.390625 -18.9375 C 88.390625 -18.9375 87.976562 -18.234375 87.15625 -16.828125 C 86.332031 -15.421875 85.03125 -13.671875 83.25 -11.578125 C 81.46875 -9.484375 79.082031 -7.390625 76.09375 -5.296875 C 73.113281 -3.203125 69.476562 -1.453125 65.1875 -0.046875 C 60.90625 1.359375 55.847656 2.0625 50.015625 2.0625 C 42.742188 2.0625 36.140625 0.722656 30.203125 -1.953125 C 24.265625 -4.628906 19.148438 -8.367188 14.859375 -13.171875 C 10.578125 -17.972656 7.285156 -23.628906 4.984375 -30.140625 C 2.691406 -36.660156 1.546875 -43.765625 1.546875 -51.453125 Z M 1.546875 -51.453125 "/></g></g><g style="fill:#ffffff;fill-opacity:1;"><g transform="translate(274.951148, 126.668281)"><path style="stroke:none" d="M 1.546875 -51.453125 C 1.546875 -59.484375 2.742188 -66.769531 5.140625 -73.3125 C 7.546875 -79.863281 10.910156 -85.503906 15.234375 -90.234375 C 19.554688 -94.972656 24.679688 -98.613281 30.609375 -101.15625 C 36.546875 -103.695312 43.015625 -104.96875 50.015625 -104.96875 C 57.015625 -104.96875 63.476562 -103.679688 69.40625 -101.109375 C 75.34375 -98.535156 80.472656 -94.894531 84.796875 -90.1875 C 89.117188 -85.488281 92.476562 -79.863281 94.875 -73.3125 C 97.28125 -66.769531 98.484375 -59.484375 98.484375 -51.453125 C 98.484375 -43.421875 97.28125 -36.128906 94.875 -29.578125 C 92.476562 -23.035156 89.117188 -17.410156 84.796875 -12.703125 C 80.472656 -8.003906 75.34375 -4.367188 69.40625 -1.796875 C 63.476562 0.773438 57.015625 2.0625 50.015625 2.0625 C 43.015625 2.0625 36.546875 0.789062 30.609375 -1.75 C 24.679688 -4.289062 19.554688 -7.925781 15.234375 -12.65625 C 10.910156 -17.394531 7.546875 -23.035156 5.140625 -29.578125 C 2.742188 -36.128906 1.546875 -43.421875 1.546875 -51.453125 Z M 38.390625 -99.40625 C 35.910156 -98.789062 34.191406 -96.234375 33.234375 -91.734375 C 32.273438 -87.242188 32.117188 -81.273438 32.765625 -73.828125 C 33.421875 -66.390625 34.882812 -57.832031 37.15625 -48.15625 C 39.414062 -38.550781 42.003906 -30.265625 44.921875 -23.296875 C 47.835938 -16.335938 50.785156 -11.09375 53.765625 -7.5625 C 56.753906 -4.03125 59.445312 -2.570312 61.84375 -3.1875 C 64.3125 -3.875 65.921875 -6.460938 66.671875 -10.953125 C 67.429688 -15.453125 67.398438 -21.441406 66.578125 -28.921875 C 65.753906 -36.398438 64.210938 -44.90625 61.953125 -54.4375 C 59.753906 -64.113281 57.28125 -72.414062 54.53125 -79.34375 C 51.789062 -86.269531 49.03125 -91.5 46.25 -95.03125 C 43.476562 -98.5625 40.859375 -100.019531 38.390625 -99.40625 Z M 38.390625 -99.40625 "/></g></g></g></svg>