<svg xmlns="http://www.w3.org/2000/svg" xmlns:xlink="http://www.w3.org/1999/xlink" width="800" zoomAndPan="magnify" viewBox="0 0 600 74.999997" height="100" preserveAspectRatio="xMidYMid meet" version="1.2"><defs/><g id="433600a3e4"><g style="fill:#ffffff;fill-opacity:1;"><g transform="translate(-2.134082, 73.127597)"><path style="stroke:none" d="M 36.390625 -71.15625 C 42.148438 -71.15625 47.09375 -70 51.21875 -67.6875 C 55.351562 -65.382812 58.539062 -62.316406 60.78125 -58.484375 C 63.019531 -54.660156 64.140625 -50.476562 64.140625 -45.9375 C 64.140625 -41.394531 63.019531 -37.207031 60.78125 -33.375 C 58.539062 -29.550781 55.351562 -26.472656 51.21875 -24.140625 C 47.09375 -21.804688 42.148438 -20.640625 36.390625 -20.640625 L 26.625 -20.640625 L 26.625 0 L 7.109375 0 L 7.109375 -71.15625 Z M 35.671875 -37.09375 C 39.878906 -37.09375 42.742188 -38.007812 44.265625 -39.84375 C 45.785156 -41.675781 46.546875 -43.707031 46.546875 -45.9375 C 46.546875 -48.175781 45.785156 -50.191406 44.265625 -51.984375 C 42.742188 -53.785156 39.878906 -54.6875 35.671875 -54.6875 L 26.625 -54.6875 L 26.625 -37.09375 Z M 35.671875 -37.09375 "/></g></g><g style="fill:#ffffff;fill-opacity:1;"><g transform="translate(68.300784, 73.127597)"><path style="stroke:none" d="M 53.96875 0 L 49.59375 -12.609375 L 27.03125 -12.609375 L 22.671875 0 L 1.015625 0 L 27.84375 -71.15625 L 48.6875 -71.15625 L 75.625 0 Z M 32.828125 -29.0625 L 43.8125 -29.0625 L 38.3125 -44.71875 Z M 32.828125 -29.0625 "/></g></g><g style="fill:#ffffff;fill-opacity:1;"><g transform="translate(150.220676, 73.127597)"><path style="stroke:none" d="M 63.125 -71.15625 L 63.125 -54.6875 L 42.28125 -54.6875 L 42.28125 0 L 22.875 0 L 22.875 -54.6875 L 2.03125 -54.6875 L 2.03125 -71.15625 Z M 63.125 -71.15625 "/></g></g><g style="fill:#ffffff;fill-opacity:1;"><g transform="translate(228.786797, 73.127597)"><path style="stroke:none" d="M 46.859375 0 L 33.640625 -22.875 L 26.53125 -22.875 L 26.53125 0 L 7.109375 0 L 7.109375 -71.15625 L 36.28125 -71.15625 C 42.039062 -71.15625 46.988281 -70.085938 51.125 -67.953125 C 55.257812 -65.816406 58.460938 -62.9375 60.734375 -59.3125 C 63.003906 -55.6875 64.140625 -51.601562 64.140625 -47.0625 C 64.140625 -42.789062 63.140625 -38.910156 61.140625 -35.421875 C 59.140625 -31.929688 56.3125 -29.101562 52.65625 -26.9375 L 68.203125 0 Z M 26.53125 -54.6875 L 26.53125 -39.328125 L 35.578125 -39.328125 C 39.773438 -39.328125 42.648438 -40.039062 44.203125 -41.46875 C 45.765625 -42.894531 46.546875 -44.757812 46.546875 -47.0625 C 46.546875 -49.289062 45.765625 -51.117188 44.203125 -52.546875 C 42.648438 -53.972656 39.773438 -54.6875 35.578125 -54.6875 Z M 26.53125 -54.6875 "/></g></g><g style="fill:#ffffff;fill-opacity:1;"><g transform="translate(310.402048, 73.127597)"><path style="stroke:none" d="M 26.625 -71.15625 L 26.625 0 L 7.109375 0 L 7.109375 -71.15625 Z M 26.625 -71.15625 "/></g></g><g style="fill:#ffffff;fill-opacity:1;"><g transform="translate(357.562437, 73.127597)"><path style="stroke:none" d="M 41.375 -72.78125 C 46.519531 -72.78125 51.378906 -71.8125 55.953125 -69.875 C 60.523438 -67.945312 64.585938 -65.269531 68.140625 -61.84375 C 71.703125 -58.425781 74.5 -54.476562 76.53125 -50 C 78.5625 -45.53125 79.578125 -40.722656 79.578125 -35.578125 C 79.578125 -30.421875 78.5625 -25.609375 76.53125 -21.140625 C 74.5 -16.671875 71.703125 -12.738281 68.140625 -9.34375 C 64.585938 -5.957031 60.523438 -3.296875 55.953125 -1.359375 C 51.378906 0.566406 46.519531 1.53125 41.375 1.53125 C 36.21875 1.53125 31.332031 0.566406 26.71875 -1.359375 C 22.113281 -3.296875 18.03125 -5.957031 14.46875 -9.34375 C 10.914062 -12.738281 8.125 -16.671875 6.09375 -21.140625 C 4.0625 -25.609375 3.046875 -30.421875 3.046875 -35.578125 C 3.046875 -40.722656 4.0625 -45.53125 6.09375 -50 C 8.125 -54.476562 10.914062 -58.425781 14.46875 -61.84375 C 18.03125 -65.269531 22.113281 -67.945312 26.71875 -69.875 C 31.332031 -71.8125 36.21875 -72.78125 41.375 -72.78125 Z M 41.375 -16.15625 C 44.957031 -16.15625 48.222656 -17.019531 51.171875 -18.75 C 54.117188 -20.476562 56.472656 -22.816406 58.234375 -25.765625 C 59.992188 -28.710938 60.875 -31.984375 60.875 -35.578125 C 60.875 -39.171875 59.992188 -42.4375 58.234375 -45.375 C 56.472656 -48.320312 54.117188 -50.675781 51.171875 -52.4375 C 48.222656 -54.207031 44.957031 -55.09375 41.375 -55.09375 C 37.78125 -55.09375 34.507812 -54.207031 31.5625 -52.4375 C 28.613281 -50.675781 26.257812 -48.320312 24.5 -45.375 C 22.738281 -42.4375 21.859375 -39.171875 21.859375 -35.578125 C 21.859375 -31.984375 22.738281 -28.710938 24.5 -25.765625 C 26.257812 -22.816406 28.613281 -20.476562 31.5625 -18.75 C 34.507812 -17.019531 37.78125 -16.15625 41.375 -16.15625 Z M 41.375 -16.15625 "/></g></g><g style="fill:#ffffff;fill-opacity:1;"><g transform="translate(450.560873, 73.127597)"><path style="stroke:none" d="M 63.125 -71.15625 L 63.125 -54.6875 L 42.28125 -54.6875 L 42.28125 0 L 22.875 0 L 22.875 -54.6875 L 2.03125 -54.6875 L 2.03125 -71.15625 Z M 63.125 -71.15625 "/></g></g><g style="fill:#ffffff;fill-opacity:1;"><g transform="translate(520.995819, 73.127597)"><path style="stroke:none" d="M 53.96875 0 L 49.59375 -12.609375 L 27.03125 -12.609375 L 22.671875 0 L 1.015625 0 L 27.84375 -71.15625 L 48.6875 -71.15625 L 75.625 0 Z M 32.828125 -29.0625 L 43.8125 -29.0625 L 38.3125 -44.71875 Z M 32.828125 -29.0625 "/></g></g></g></svg>